<svg width="132" height="28" viewBox="0 0 132 28" fill="none" xmlns="http://www.w3.org/2000/svg">
<path d="M48.8633 15.9023H55.2734V13.1602H48.8633V9.42188H57.0312V6.67969H45.6992V22.5938H48.8633V15.9023Z" fill="white"/>
<path d="M60.7695 11.3438H57.8633V22.5938H60.875V16.8281C60.875 14.5078 62.2695 13.793 63.5938 13.793C64.1914 13.793 64.6836 13.9453 64.9883 14.0508L65.2227 11.3672C64.9883 11.2852 64.4258 11.1094 63.7578 11.1094C62.4922 11.1094 61.4023 11.707 60.8281 12.8789L60.7695 11.3438Z" fill="white"/>
<path d="M71.4688 22.8281C73.2148 22.8281 74.3984 22.1719 75.1367 21.2344L75.1953 22.5938H78.1367V11.3438H75.1953L75.1367 12.7031C74.3984 11.7773 73.2148 11.1094 71.4688 11.1094C68.375 11.1094 66.043 13.5352 66.043 16.9453C66.043 20.3555 68.375 22.8281 71.4688 22.8281ZM75.125 16.9453C75.125 18.75 73.8477 20.1562 72.0547 20.1562C70.25 20.1562 69.0312 18.75 69.0312 16.9453C69.0312 15.1523 70.25 13.793 72.0547 13.793C73.8477 13.793 75.125 15.1523 75.125 16.9453Z" fill="white"/>
<path d="M87.3594 11.1094C85.6836 11.1094 84.4766 11.8594 83.8906 12.6445L83.832 11.3438H80.9727V22.5938H83.9727V16.3008C83.9727 14.7422 85.1445 13.8984 86.4688 13.8984C87.7812 13.8984 88.7891 14.7422 88.7891 16.3008V22.5938H91.8008V15.5273C91.8008 12.8203 89.9609 11.1094 87.3594 11.1094Z" fill="white"/>
<path d="M97.543 6.09375H94.543V22.5938H97.543V18.0586H99.207L102.359 22.5938H105.898L101.668 16.793L105.172 11.3438H101.832L99.3008 15.457H97.543V6.09375Z" fill="white"/>
<path d="M110.445 22.5938V11.3438H107.434V22.5938H110.445ZM108.934 9.45703C109.953 9.45703 110.668 8.75391 110.668 7.73438C110.668 6.70312 109.953 6 108.934 6C107.914 6 107.211 6.71484 107.211 7.73438C107.211 8.75391 107.914 9.45703 108.934 9.45703Z" fill="white"/>
<path d="M123.031 19.3359C121.918 19.8633 120.617 20.1914 119.223 20.1914C117.371 20.1914 115.965 19.4414 115.66 17.8711H123.793C124.531 13.7109 121.906 11.1094 118.449 11.1094C115.109 11.1094 112.672 13.5234 112.672 16.9688C112.672 20.4727 115.227 22.8281 119.211 22.8281C120.852 22.8281 122.363 22.3945 123.453 21.7734L123.031 19.3359ZM115.707 15.8555C115.836 14.5781 116.914 13.6406 118.52 13.6406C120.066 13.6406 121.016 14.6016 121.098 15.8555H115.707Z" fill="white"/>
<path fill-rule="evenodd" clip-rule="evenodd" d="M23.3333 25C33.6667 25 40.6667 16.6667 40.6667 14C40.6667 11.6667 33.6667 3 23.3333 3C12 3 6 11.6667 6 14C6 15.6497 8.42388 19.4682 12.877 22.1406L17.5914 17.4262C17.1065 16.5019 16.8321 15.4497 16.8321 14.3334C16.8321 10.6515 19.8169 7.66675 23.4988 7.66675C24.5633 7.66675 25.5696 7.91627 26.4623 8.36001L22.913 11.9094C22.1319 12.6904 22.1319 13.9567 22.913 14.7378C23.694 15.5188 24.9603 15.5188 25.7414 14.7378L29.3476 11.1316C29.869 12.0819 30.1654 13.173 30.1654 14.3334C30.1654 18.0153 27.1807 21.0001 23.4988 21.0001C22.3898 21.0001 21.3441 20.7293 20.4242 20.2503L16.7438 23.9307C18.7006 24.5932 20.903 25 23.3333 25Z" fill="#257EFF"/>
</svg>
