<svg width="219" height="80" viewBox="0 0 219 80" fill="none" xmlns="http://www.w3.org/2000/svg">
<g clip-path="url(#clip0_1_66)">
<g clip-path="url(#clip1_1_66)">
<path d="M30.1147 59.4214V60.0967L38.9541 71.621V78.3973L38.2738 79.0752H34.1916L32.8335 78.3973L19.2263 60.7746L17.8762 60.0967H10.2028L9.52241 60.7746V78.3973L8.84205 79.0752H0.680363L0 78.3973V32.3081L0.680363 31.6355H23.9915C33.5165 31.6355 40.3175 36.3782 40.3175 45.8661C40.3175 53.3203 35.555 58.0656 30.1147 59.4214ZM23.9781 39.765H10.2028L9.52241 40.4429V51.2866L10.2028 51.9645H23.9915C28.0736 51.9645 30.7951 50.6087 30.7951 45.8634C30.7951 41.1182 28.0736 39.765 23.9915 39.765H23.9781Z" fill="white"/>
<path d="M82.3001 60.774C82.3001 72.9735 75.4965 79.7525 63.2526 79.7525C51.0088 79.7525 44.2051 72.9735 44.2051 60.774V32.3075L44.8855 31.6323H53.0499L53.7302 32.3075V60.774C53.7302 67.553 56.449 71.6204 63.2526 71.6204C70.0563 71.6204 72.775 67.553 72.775 60.774V32.3075L73.4554 31.6323H81.6198L82.3001 32.3075V60.774Z" fill="white"/>
<path d="M105.246 79.7526C91.6385 79.7526 85.5179 72.9736 85.5179 64.1636L86.1983 63.4857H94.36L95.0404 64.1636C95.0404 68.9089 97.7618 71.6205 105.923 71.6205C112.047 71.6205 115.449 69.5868 115.449 65.5061C115.449 60.7608 112.727 59.4077 103.205 58.0625C93.6823 56.7173 86.1983 53.3172 86.1983 43.8292C86.1983 37.0503 91.6385 30.9518 104.565 30.9518C117.492 30.9518 122.93 37.0503 122.93 45.185L122.25 45.8603H114.088L113.407 45.193C113.407 41.1256 111.366 39.0919 103.885 39.0919C97.7618 39.0919 95.7207 41.1256 95.7207 43.8372C95.7207 47.902 98.4422 49.2578 107.965 50.6136C117.487 51.9694 124.971 56.0368 124.971 65.5247C124.971 72.9736 119.531 79.7526 105.246 79.7526Z" fill="white"/>
<path d="M166.957 79.0746H158.793L158.113 78.3967V59.4208L157.432 58.7509H139.068L138.388 59.4288V78.3967L137.707 79.0746H129.543L128.87 78.3967V32.3075L129.551 31.6323H137.715L138.396 32.3075V49.9302L139.076 50.6081H157.44L158.121 49.9302V32.3075L158.801 31.6323H166.965L167.646 32.3075V78.3967L166.957 79.0746Z" fill="white"/>
<path d="M213.859 40.1051L199.966 61.9042L199.646 61.5825L210.513 42.3807L210.353 42.2185L203.354 52.5279L203.034 52.2063L212.906 35.3837L212.746 35.2242L203.843 48.2824L203.525 47.9607L218.242 23.0645L218.082 22.9024L209.326 35.6044L209.005 35.2827L213.872 26.9272L213.712 26.7677L212.111 29.0141L211.794 28.6924L217.156 18.173L216.996 18.0135L214.475 21.4323L214.157 21.1106L218.242 13.768L218.082 13.6058L212.3 22.4372L205.457 32.6136L205.137 32.292L214.616 16.7481L214.456 16.5859L213.715 17.014C213.667 16.9422 213.616 16.8598 213.578 16.7986L216.916 10.6337L216.756 10.4742L215.924 11.5376L215.604 11.2159L217.308 7.8663L217.148 7.70679L213.739 12.8801L213.421 12.5584L215.022 9.36831L214.862 9.20614L208.546 18.2448L208.229 17.9231C208.229 17.9231 212.711 10.1685 214.213 7.58184C215.475 5.41256 218.272 0.162164 218.272 0.162164L218.112 0L198.733 28.6446L198.416 28.3229L200.238 24.5825L200.078 24.4203L189.259 41.5194L188.941 41.2057L201.708 18.4601L201.548 18.298L190.262 34.7351L189.945 34.4134L192.252 29.6628L192.103 29.5086L173.984 56.7681V78.2668L174.784 79.0644H196.329L206.697 60.0805L206.537 59.921L199.64 70.7142L199.323 70.3926L204.79 60.6122L204.63 60.45L202.943 62.5555L202.626 62.2339L206.361 55.7207L206.201 55.5612L204.814 57.2839L204.496 56.9622L214.005 40.254L213.859 40.1051Z" fill="#FF005A"/>
</g>
</g>
<defs>
<clipPath id="clip0_1_66">
<rect width="219" height="80" fill="white"/>
</clipPath>
<clipPath id="clip1_1_66">
<rect width="219" height="80" fill="white"/>
</clipPath>
</defs>
</svg>
